<mxfile host="Electron" agent="Mozilla/5.0 (Macintosh; Intel Mac OS X 10_15_7) AppleWebKit/537.36 (KHTML, like Gecko) draw.io/26.0.4 Chrome/128.0.6613.186 Electron/32.2.5 Safari/537.36" version="26.0.4">
  <diagram name="Page-1" id="0xnO1CFSFw54RsFfDZkQ">
    <mxGraphModel dx="1061" dy="793" grid="1" gridSize="10" guides="1" tooltips="1" connect="1" arrows="1" fold="1" page="1" pageScale="1" pageWidth="827" pageHeight="1169" math="0" shadow="0">
      <root>
        <mxCell id="0" />
        <mxCell id="1" parent="0" />
        <mxCell id="oC8v5R6ncZ2y5Ac7K_mP-1" value="&lt;div&gt;Cross Application Analytics&lt;/div&gt;" style="rounded=0;whiteSpace=wrap;html=1;fontColor=#FFFFFF;fillColor=#4DC5FE;strokeColor=#4DC5FE;fontSize=16;shadow=1;" parent="1" vertex="1">
          <mxGeometry x="360" y="40" width="290" height="60" as="geometry" />
        </mxCell>
        <mxCell id="oC8v5R6ncZ2y5Ac7K_mP-2" value="&lt;div style=&quot;&quot;&gt;&lt;div style=&quot;&quot;&gt;&lt;div&gt;&lt;div&gt;&lt;font color=&quot;#000000&quot;&gt;Combine data of one or more source systems using an analytics or data ware-house solution. On top of the combined data an analytic consumption model can be built to enable (cross app) reporting.&lt;/font&gt;&lt;/div&gt;&lt;div&gt;&lt;br&gt;&lt;/div&gt;&lt;/div&gt;&lt;/div&gt;&lt;/div&gt;" style="rounded=0;whiteSpace=wrap;html=1;fontColor=#FFFFFF;fillColor=#FFFFFF;strokeColor=#4DC5FE;fontSize=16;shadow=1;align=center;verticalAlign=top;" parent="1" vertex="1">
          <mxGeometry x="360" y="100" width="290" height="380" as="geometry" />
        </mxCell>
        <mxCell id="oC8v5R6ncZ2y5Ac7K_mP-3" value="&lt;div&gt;Embedded Analytics&lt;/div&gt;" style="rounded=0;whiteSpace=wrap;html=1;fontColor=#FFFFFF;fillColor=#4DC5FE;strokeColor=#4DC5FE;fontSize=16;shadow=1;" parent="1" vertex="1">
          <mxGeometry x="40" y="40" width="290" height="60" as="geometry" />
        </mxCell>
        <mxCell id="oC8v5R6ncZ2y5Ac7K_mP-5" value="&lt;div style=&quot;font-size: 14px;&quot;&gt;&lt;div&gt;&lt;u&gt;Example&lt;/u&gt;: Treasury Executive Dashboard. By embedding SAP Analytics Cloud into SAP S/4HANA Cloud.&lt;/div&gt;&lt;/div&gt;" style="rounded=0;whiteSpace=wrap;html=1;fontColor=#000000;fillColor=#D5F1FF;strokeColor=#D5F1FF;align=left;verticalAlign=top;fontSize=14;" parent="1" vertex="1">
          <mxGeometry x="40" y="500" width="290" height="100" as="geometry" />
        </mxCell>
        <mxCell id="oC8v5R6ncZ2y5Ac7K_mP-6" value="&lt;div style=&quot;&quot;&gt;&lt;div style=&quot;&quot;&gt;&lt;div style=&quot;&quot;&gt;&lt;u&gt;Example&lt;/u&gt;: Financial analytics dashboard for SAP Analytics Cloud&lt;/div&gt;&lt;/div&gt;&lt;/div&gt;" style="rounded=0;whiteSpace=wrap;html=1;fontColor=#000000;fillColor=#D5F1FF;strokeColor=#D5F1FF;align=left;verticalAlign=top;fontSize=14;" parent="1" vertex="1">
          <mxGeometry x="360" y="500" width="290" height="100" as="geometry" />
        </mxCell>
        <mxCell id="oC8v5R6ncZ2y5Ac7K_mP-7" value="" style="group" parent="1" vertex="1" connectable="0">
          <mxGeometry x="380" y="390" width="85" height="80" as="geometry" />
        </mxCell>
        <mxCell id="oC8v5R6ncZ2y5Ac7K_mP-8" value="Application" style="rounded=0;whiteSpace=wrap;html=1;fillColor=#000000;fontColor=#FFFFFF;fontSize=13;" parent="oC8v5R6ncZ2y5Ac7K_mP-7" vertex="1">
          <mxGeometry width="85" height="30" as="geometry" />
        </mxCell>
        <mxCell id="oC8v5R6ncZ2y5Ac7K_mP-9" value="" style="rounded=0;whiteSpace=wrap;html=1;" parent="oC8v5R6ncZ2y5Ac7K_mP-7" vertex="1">
          <mxGeometry y="30" width="85" height="50" as="geometry" />
        </mxCell>
        <mxCell id="oC8v5R6ncZ2y5Ac7K_mP-10" value="" style="rounded=0;whiteSpace=wrap;html=1;fillColor=#595959;fontColor=#FFFFFF;align=left;verticalAlign=top;" parent="oC8v5R6ncZ2y5Ac7K_mP-7" vertex="1">
          <mxGeometry x="5" y="35" width="75" height="40" as="geometry" />
        </mxCell>
        <mxCell id="oC8v5R6ncZ2y5Ac7K_mP-11" value="" style="shape=image;verticalLabelPosition=bottom;labelBackgroundColor=default;verticalAlign=top;aspect=fixed;imageAspect=0;image=data:image/png,iVBORw0KGgoAAAANSUhEUgAAAJ4AAACeCAYAAADDhbN7AAAAAXNSR0IArs4c6QAAAIRlWElmTU0AKgAAAAgABQESAAMAAAABAAEAAAEaAAUAAAABAAAASgEbAAUAAAABAAAAUgEoAAMAAAABAAIAAIdpAAQAAAABAAAAWgAAAAAAAADcAAAAAQAAANwAAAABAAOgAQADAAAAAQABAACgAgAEAAAAAQAAAJ6gAwAEAAAAAQAAAJ4AAAAAeonODQAAAAlwSFlzAAAh1QAAIdUBBJy0nQAADL5JREFUeAHtnXuMXUUdx+c+drfsltJuiy2tFajEaknFAJr4akIEQjABtQ9joUQLklRBAwaVxD8QoUr5Q/4RIyg0to2RWlOBRIkkiI+ioTYUBdsA0nbb7Yt23e2W3e59+Z3dndu5Z88999xzzj0z95zvJLMzZ+Y3M7/fZ35nzvOeFYKBBEiABEiABEiABEiABEiABEiABEiABEiABEiABEiABEiABEiABEiABEiABEiABEiABEiABEiABEiABEiABEiABEiABEiABEiABEiABEiABEiABEiABEiABEiABEiABEiABEIRyIRqnZLGlUpFcspOmqtSN+vLk4XlTCZTcRNg2QSB1DgenGdxuVz+Ksy+KpvNXm6bA5RKpR25XG479PolnPaobfpRnzoE4FgXYPIeQ5rYAPvuh3Gz6yBoq+K2XPEA/06sXg9h5TonCtroq4h+NqK/l5DKOCQjVp5TSEMF6HouOpiBOAvx0xjrSoyzNlSnWmP0dwr9rYGuv9OKmY2CAPb0Tc0uY2hzDPGnaPeBKHSIuw/ovVjajTgQwPb1ceubmPEAfMwPcMjth1xXYgz3YQjsnVYsFn05JPiM+ugy3SKA9BMvZ0P9btTLwxaDgwC4XAI+R7z4oe5rjmbp3gSQ77gBA8giyiM5j0sbYXC7GPzKblxR9om08Zhibx0wi6cIsiAwATBe5uQsnTJwhxE0NHpVK2HoNuDKzKg+ui5JzAO3vPld0m0zxdzrLryuX+R57HGvq04B5GlTAJQOaUjBWD5RyeAWTPWCA+zvNmG7sRUGBldXOzpd/FNvmr+xFS9+1BzRJgJWOB4Ou7+yCUrSdQHvfaZttOJQqyDwkKtItCbF4bUTPZ9x9m6CuxUrngIhzzsmQ4cqYxqeAJguklzR0xSnC997sB6scDxcZT3iUH/8cZm81wRe73XUcdMHAXC7TDqbDBB/S28Crjfp26nKTyCZ+KsMhwP+US935gFsQMkynUoAfOSTnroB9XepVrqQKktF6mU46jr0eq88YG5GvbFzVROTBXtnYyd91ouLqgOf0246qnqZutUntqwZwwFvjy7fRP52yM5pR4jQ+z2I32vC1qoonPK5RjZXhZFpJNuKemMrhTRcGdTsVRWafhltn1Ttw6SYpP+h/duIr+CFyheR7oI+/wrTp1tb6HwZyj+CdAXiAuQvxngz3WQDlK2AztuaaQcdAvNvZpx6sm3peG7GgON8xI2YgGvc6pNQBvu2wb5bEN8Naw/6Mup4YfUP3F4arkLgTnw2xDh5xF4csjeoMW1Mod966DUTMefTtMBiuv2BOwnRMDErXggGvppioqZBcO6k8EUujfbJMqxG+13qrCuSjqeUgs6x+0HsAypjTRuu9Ehrapq/FTeQ0zr5ababjpfm2Tdou9WOJw8HMuCk+7hBRhy6BQSsdjxlL+53zZlwwZq/C1U90/YjYLvjef3o50D74abGxgnoa5dfZXDIrfk2it92lJtKIAj/qb0EL+HtlODs2rqldDxlgIn7eLYfahUbpgkjYIXjYec7L2FcrTYHvD9ktYKtVE4u9XrA+dtrrRyPfU8QAOdBnbvMp4qN03i1DTCbUwUiJmPxdam/KsbONCYV7BhGNx7OVu/jMvy9RYjpAuNrdc4qD96jKi/TEEO0X1On4djO6WXOPPbYl9vPyvg1hlN5vq2tNNL5qrJUpF6Go26nXu+RX5UKWHWMBJd1HmyqVXjL+vfOLqqVyDjrEr3t13DswVt02UZ5yA8h/ixJ8GDPZsThRrY76u/xYqDLesklri6o4ZiAR/W2QfLo4yTabUT8EqKRbyRj3I8i3oHVaBvS0AE2/bAZJ9EHbKZdVLKJeHIBiN/CBD6Ilwm6ogJjaz+wcwR2LsfThimHz2Z0lo6n5E08uVBjx57GscdhjCzitZis3+rj2Z7H6vVr6NjSHy3pDGKffAyYiBUvanCYlM/BWa/BSrAEaQ/Sbowx/tFvrDZ1P/4NWfn/MWQYQh9DkD2BdBfSP6GPFyaq7PgrHU9pYmLFo+Mp+ilLTTueFc9qUzbnNBcE6Hh0AyMErHY8eThQASfcm4wQ4qDJIqAcSqb1LNNlnHmcyD9Trx3LGxPQeTaWTpCEX8Ox0h3QZfV8gnDEbkpqOQYxHG3y8mUB2RYO+U7ss5WgAYPwj9J83k6JkmYb9SUdT6lr4j6e1RcXCgzT5BGg4yVvTtvCIiscT1/224JaGysJ1gts4J23haEGI4dzDqP/0tIWJlHqAb7ys7fWfDXfihXPAbgknVC+oeEo52YAAuD4z8md2hqnC2BGdE0kDBVkr7ghXPfz+YVCYS9kW/551uisM9cTOMlP7tZ9Wxl1P5LaKfYyNaetgZHrGY7yS/U6j7yNq3XsJMFniQcjvUp+Srca9IpqYRoyfgyHzFpdrlEeq+Z2yCTyV/Kw63LY94dGDBz1K+r5ki5XTyaR5UEMx1OLP+vtms1PPvW4Du3m2QIVumQQ5ZXmahwGdyMNHOSO59cufRC/baKUa+snF4An/7fFY7gK/myUUHz0NegiE+v3X+BkW/Bm8zdh+wkXXRoWScdTQiaeXKixY0+l4Sq0YnCsbqsR6362QY1tcwrneh763dAKPrrdrejf2j5tMBw6dCFOR7wBTvoXXadW5eFML6Dv6xF7EI3dR8XY1WDCSdr6UGsCWFLGlF6nbDFxqOUtCUWfaawE6Hix4uZgioDVjlc9CalUvq4UZkoCoQhoTlU913B2qMvoeZygN/xHwM6+uF1LQOdZW5PwLT+GT14B6qI1+YQjaql5OsiWDmRb580aDvl5uLM/1mw72+y2RR/THHk7xRZPiFkP6XhqSN5OUSSYJp6A1Ve1iaefYgONOd6JH5/9fLG+7Kd4LmIzXec9uK3mNb3YdDDmeCMvba0xUsIYfe3FnTWF3IiUQOF0//jFmeq0UnwXryKfUZuxpsYcT1p5cFVGFA7+p2pw15JlV0gHLJweKlULmQlNQDKVId99QYfqbPSNR8TQ9h61GXtq1PGktUfvXjLugLrl+e5z5Sdkq2H4+cfn6vXMexMYffWJRVV4yDilB3+TEWd23+UsjnXbuOMpa+XqJ6Nb6PnMbUcUyMLQ8ZPvPPXAAje5tJadevrm5YVT/UXFqGvpV95yYyEdTkYbgjEt+laKKXuiDiR/4YfFvId360We+dKpY5/Pz5jr+9Vvz84sriwc2nFPfv7HN/hVcXA7Xowuqk8zu7eauTL+b2Fb63i1iDLi/PV/F12XfKy22MdWaWykUDz4ysHSv3/+qZ4bn+j30cSoyMC2NWt6lt37YHbGhfNznd1N/6TzzL4nxejOtU3ZQMdrAlfX0qvFrHW/EPk572uilT/R4vDxghg+chwfxX8z09F9LDd70atj+/5RkK2Lx/ae/TxabgRvEGeqO29+3qWzpEzngk/miv07r66UyudVOrsX5WZeND3XNb0qJ2WiCKWhvWLk5ZtFaSDczQA6XgSzkZ29UMzdsEtke3pFJmvNKWxgyyrlgiiP9Ivh5/CrzfJI4H68GppwPGPv/HuBCFNXPtEnDt96/ngXHYtceursER0LrhSd779KTFu6UuTnLnERiqeoePJ1MbZniygc/psoHt4BxxpfVGsGz8+v2UzMRuTLv18yjS4u/PbjJefqeF4NmqzLzsZn81v8T6zicDwTK177H4uadBaK20GAjmfHPKROCzpe6qbcDoPpeHbMQ+q0oOOlbsrtMJiOZ8c8pE4LOl7qptwOg+l4dsxD6rSg46Vuyu0w2JzjVcQeOxCkW4viIbHRBAFjj8yksa1+bMZHZo1dysTjMqmVuRUPgy/cGv8LiI2nIh0S5bKomHI6Sdio40kFpPMBwr0yzxAPgbFDYlXvF83OvdFDrRPzgeXi0UxWrHOWB93mobaWXGVI3DfrVvH92lIzW1Y5no5g/wpRyGZEqPcF6Xh4xa8iCr2rRKfO1oa8tY6nw+n7gtgscuImvcxPPq2OVx4Qm3pvF7f4YWRKpi0czwmnb4W4E79RewhnKec46/TtNDheuSgK5T5x/5xviwd0223Pt6XjuUF9e6WYly+JH2BlvE3VJ83xikfFM9lhcUfvd8UBZWO7polxvEYT0P8NcUVmmlidqYjrsVJ+sJG8n/qoXn2XtzZEUezJFMWzoyfF4wsfFm/4Gb+dZVLjeGEmqXLf+K0HdetJpeNdvnni7L3IwTNi/B88/3dAlFdtFfz+SxjobEsCJEACJEACJEACJEACJEACJEACJEACJEACJEACJEACJEACJEACJEACJEACJEACJEACJEACJEACJEACJEACJEACJEACJEACJEACJEACJEACJEACJEACJEACJEACJNBGBP4Pta7qWmho+60AAAAASUVORK5CYII=;" parent="oC8v5R6ncZ2y5Ac7K_mP-7" vertex="1">
          <mxGeometry x="17.5" y="30" width="50" height="50" as="geometry" />
        </mxCell>
        <mxCell id="oC8v5R6ncZ2y5Ac7K_mP-12" value="" style="group" parent="1" vertex="1" connectable="0">
          <mxGeometry x="550" y="390" width="85" height="80" as="geometry" />
        </mxCell>
        <mxCell id="oC8v5R6ncZ2y5Ac7K_mP-13" value="Data Source" style="rounded=0;whiteSpace=wrap;html=1;fillColor=#000000;fontColor=#FFFFFF;fontSize=13;" parent="oC8v5R6ncZ2y5Ac7K_mP-12" vertex="1">
          <mxGeometry width="85" height="30" as="geometry" />
        </mxCell>
        <mxCell id="oC8v5R6ncZ2y5Ac7K_mP-14" value="" style="rounded=0;whiteSpace=wrap;html=1;" parent="oC8v5R6ncZ2y5Ac7K_mP-12" vertex="1">
          <mxGeometry y="30" width="85" height="50" as="geometry" />
        </mxCell>
        <mxCell id="oC8v5R6ncZ2y5Ac7K_mP-15" value="" style="rounded=0;whiteSpace=wrap;html=1;fillColor=#595959;fontColor=#FFFFFF;align=left;verticalAlign=top;" parent="oC8v5R6ncZ2y5Ac7K_mP-12" vertex="1">
          <mxGeometry x="5" y="35" width="75" height="40" as="geometry" />
        </mxCell>
        <mxCell id="oC8v5R6ncZ2y5Ac7K_mP-16" value="" style="shape=image;verticalLabelPosition=bottom;labelBackgroundColor=default;verticalAlign=top;aspect=fixed;imageAspect=0;image=data:image/png,iVBORw0KGgoAAAANSUhEUgAAAJ4AAACeCAYAAADDhbN7AAAAAXNSR0IArs4c6QAAAIRlWElmTU0AKgAAAAgABQESAAMAAAABAAEAAAEaAAUAAAABAAAASgEbAAUAAAABAAAAUgEoAAMAAAABAAIAAIdpAAQAAAABAAAAWgAAAAAAAADcAAAAAQAAANwAAAABAAOgAQADAAAAAQABAACgAgAEAAAAAQAAAJ6gAwAEAAAAAQAAAJ4AAAAAeonODQAAAAlwSFlzAAAh1QAAIdUBBJy0nQAADL5JREFUeAHtnXuMXUUdx+c+drfsltJuiy2tFajEaknFAJr4akIEQjABtQ9joUQLklRBAwaVxD8QoUr5Q/4RIyg0to2RWlOBRIkkiI+ioTYUBdsA0nbb7Yt23e2W3e59+Z3dndu5Z88999xzzj0z95zvJLMzZ+Y3M7/fZ35nzvOeFYKBBEiABEiABEiABEiABEiABEiABEiABEiABEiABEiABEiABEiABEiABEiABEiABEiABEiABEiABEiABEiABEiABEiABEiABEiABEiABEiABEiABEiABEiABEiABEiABEiABEIRyIRqnZLGlUpFcspOmqtSN+vLk4XlTCZTcRNg2QSB1DgenGdxuVz+Ksy+KpvNXm6bA5RKpR25XG479PolnPaobfpRnzoE4FgXYPIeQ5rYAPvuh3Gz6yBoq+K2XPEA/06sXg9h5TonCtroq4h+NqK/l5DKOCQjVp5TSEMF6HouOpiBOAvx0xjrSoyzNlSnWmP0dwr9rYGuv9OKmY2CAPb0Tc0uY2hzDPGnaPeBKHSIuw/ovVjajTgQwPb1ceubmPEAfMwPcMjth1xXYgz3YQjsnVYsFn05JPiM+ugy3SKA9BMvZ0P9btTLwxaDgwC4XAI+R7z4oe5rjmbp3gSQ77gBA8giyiM5j0sbYXC7GPzKblxR9om08Zhibx0wi6cIsiAwATBe5uQsnTJwhxE0NHpVK2HoNuDKzKg+ui5JzAO3vPld0m0zxdzrLryuX+R57HGvq04B5GlTAJQOaUjBWD5RyeAWTPWCA+zvNmG7sRUGBldXOzpd/FNvmr+xFS9+1BzRJgJWOB4Ou7+yCUrSdQHvfaZttOJQqyDwkKtItCbF4bUTPZ9x9m6CuxUrngIhzzsmQ4cqYxqeAJguklzR0xSnC997sB6scDxcZT3iUH/8cZm81wRe73XUcdMHAXC7TDqbDBB/S28Crjfp26nKTyCZ+KsMhwP+US935gFsQMkynUoAfOSTnroB9XepVrqQKktF6mU46jr0eq88YG5GvbFzVROTBXtnYyd91ouLqgOf0246qnqZutUntqwZwwFvjy7fRP52yM5pR4jQ+z2I32vC1qoonPK5RjZXhZFpJNuKemMrhTRcGdTsVRWafhltn1Ttw6SYpP+h/duIr+CFyheR7oI+/wrTp1tb6HwZyj+CdAXiAuQvxngz3WQDlK2AztuaaQcdAvNvZpx6sm3peG7GgON8xI2YgGvc6pNQBvu2wb5bEN8Naw/6Mup4YfUP3F4arkLgTnw2xDh5xF4csjeoMW1Mod966DUTMefTtMBiuv2BOwnRMDErXggGvppioqZBcO6k8EUujfbJMqxG+13qrCuSjqeUgs6x+0HsAypjTRuu9Ehrapq/FTeQ0zr5ababjpfm2Tdou9WOJw8HMuCk+7hBRhy6BQSsdjxlL+53zZlwwZq/C1U90/YjYLvjef3o50D74abGxgnoa5dfZXDIrfk2it92lJtKIAj/qb0EL+HtlODs2rqldDxlgIn7eLYfahUbpgkjYIXjYec7L2FcrTYHvD9ktYKtVE4u9XrA+dtrrRyPfU8QAOdBnbvMp4qN03i1DTCbUwUiJmPxdam/KsbONCYV7BhGNx7OVu/jMvy9RYjpAuNrdc4qD96jKi/TEEO0X1On4djO6WXOPPbYl9vPyvg1hlN5vq2tNNL5qrJUpF6Go26nXu+RX5UKWHWMBJd1HmyqVXjL+vfOLqqVyDjrEr3t13DswVt02UZ5yA8h/ixJ8GDPZsThRrY76u/xYqDLesklri6o4ZiAR/W2QfLo4yTabUT8EqKRbyRj3I8i3oHVaBvS0AE2/bAZJ9EHbKZdVLKJeHIBiN/CBD6Ilwm6ogJjaz+wcwR2LsfThimHz2Z0lo6n5E08uVBjx57GscdhjCzitZis3+rj2Z7H6vVr6NjSHy3pDGKffAyYiBUvanCYlM/BWa/BSrAEaQ/Sbowx/tFvrDZ1P/4NWfn/MWQYQh9DkD2BdBfSP6GPFyaq7PgrHU9pYmLFo+Mp+ilLTTueFc9qUzbnNBcE6Hh0AyMErHY8eThQASfcm4wQ4qDJIqAcSqb1LNNlnHmcyD9Trx3LGxPQeTaWTpCEX8Ox0h3QZfV8gnDEbkpqOQYxHG3y8mUB2RYO+U7ss5WgAYPwj9J83k6JkmYb9SUdT6lr4j6e1RcXCgzT5BGg4yVvTtvCIiscT1/224JaGysJ1gts4J23haEGI4dzDqP/0tIWJlHqAb7ys7fWfDXfihXPAbgknVC+oeEo52YAAuD4z8md2hqnC2BGdE0kDBVkr7ghXPfz+YVCYS9kW/551uisM9cTOMlP7tZ9Wxl1P5LaKfYyNaetgZHrGY7yS/U6j7yNq3XsJMFniQcjvUp+Srca9IpqYRoyfgyHzFpdrlEeq+Z2yCTyV/Kw63LY94dGDBz1K+r5ki5XTyaR5UEMx1OLP+vtms1PPvW4Du3m2QIVumQQ5ZXmahwGdyMNHOSO59cufRC/baKUa+snF4An/7fFY7gK/myUUHz0NegiE+v3X+BkW/Bm8zdh+wkXXRoWScdTQiaeXKixY0+l4Sq0YnCsbqsR6362QY1tcwrneh763dAKPrrdrejf2j5tMBw6dCFOR7wBTvoXXadW5eFML6Dv6xF7EI3dR8XY1WDCSdr6UGsCWFLGlF6nbDFxqOUtCUWfaawE6Hix4uZgioDVjlc9CalUvq4UZkoCoQhoTlU913B2qMvoeZygN/xHwM6+uF1LQOdZW5PwLT+GT14B6qI1+YQjaql5OsiWDmRb580aDvl5uLM/1mw72+y2RR/THHk7xRZPiFkP6XhqSN5OUSSYJp6A1Ve1iaefYgONOd6JH5/9fLG+7Kd4LmIzXec9uK3mNb3YdDDmeCMvba0xUsIYfe3FnTWF3IiUQOF0//jFmeq0UnwXryKfUZuxpsYcT1p5cFVGFA7+p2pw15JlV0gHLJweKlULmQlNQDKVId99QYfqbPSNR8TQ9h61GXtq1PGktUfvXjLugLrl+e5z5Sdkq2H4+cfn6vXMexMYffWJRVV4yDilB3+TEWd23+UsjnXbuOMpa+XqJ6Nb6PnMbUcUyMLQ8ZPvPPXAAje5tJadevrm5YVT/UXFqGvpV95yYyEdTkYbgjEt+laKKXuiDiR/4YfFvId360We+dKpY5/Pz5jr+9Vvz84sriwc2nFPfv7HN/hVcXA7Xowuqk8zu7eauTL+b2Fb63i1iDLi/PV/F12XfKy22MdWaWykUDz4ysHSv3/+qZ4bn+j30cSoyMC2NWt6lt37YHbGhfNznd1N/6TzzL4nxejOtU3ZQMdrAlfX0qvFrHW/EPk572uilT/R4vDxghg+chwfxX8z09F9LDd70atj+/5RkK2Lx/ae/TxabgRvEGeqO29+3qWzpEzngk/miv07r66UyudVOrsX5WZeND3XNb0qJ2WiCKWhvWLk5ZtFaSDczQA6XgSzkZ29UMzdsEtke3pFJmvNKWxgyyrlgiiP9Ivh5/CrzfJI4H68GppwPGPv/HuBCFNXPtEnDt96/ngXHYtceursER0LrhSd779KTFu6UuTnLnERiqeoePJ1MbZniygc/psoHt4BxxpfVGsGz8+v2UzMRuTLv18yjS4u/PbjJefqeF4NmqzLzsZn81v8T6zicDwTK177H4uadBaK20GAjmfHPKROCzpe6qbcDoPpeHbMQ+q0oOOlbsrtMJiOZ8c8pE4LOl7qptwOg+l4dsxD6rSg46Vuyu0w2JzjVcQeOxCkW4viIbHRBAFjj8yksa1+bMZHZo1dysTjMqmVuRUPgy/cGv8LiI2nIh0S5bKomHI6Sdio40kFpPMBwr0yzxAPgbFDYlXvF83OvdFDrRPzgeXi0UxWrHOWB93mobaWXGVI3DfrVvH92lIzW1Y5no5g/wpRyGZEqPcF6Xh4xa8iCr2rRKfO1oa8tY6nw+n7gtgscuImvcxPPq2OVx4Qm3pvF7f4YWRKpi0czwmnb4W4E79RewhnKec46/TtNDheuSgK5T5x/5xviwd0223Pt6XjuUF9e6WYly+JH2BlvE3VJ83xikfFM9lhcUfvd8UBZWO7polxvEYT0P8NcUVmmlidqYjrsVJ+sJG8n/qoXn2XtzZEUezJFMWzoyfF4wsfFm/4Gb+dZVLjeGEmqXLf+K0HdetJpeNdvnni7L3IwTNi/B88/3dAlFdtFfz+SxjobEsCJEACJEACJEACJEACJEACJEACJEACJEACJEACJEACJEACJEACJEACJEACJEACJEACJEACJEACJEACJEACJEACJEACJEACJEACJEACJEACJEACJEACJEACJEACJNBGBP4Pta7qWmho+60AAAAASUVORK5CYII=;" parent="oC8v5R6ncZ2y5Ac7K_mP-12" vertex="1">
          <mxGeometry x="17.5" y="30" width="50" height="50" as="geometry" />
        </mxCell>
        <mxCell id="oC8v5R6ncZ2y5Ac7K_mP-17" value="" style="group" parent="1" vertex="1" connectable="0">
          <mxGeometry x="470" y="230" width="85" height="80" as="geometry" />
        </mxCell>
        <mxCell id="oC8v5R6ncZ2y5Ac7K_mP-18" value="Analytics" style="rounded=0;whiteSpace=wrap;html=1;fillColor=#000000;fontColor=#FFFFFF;fontSize=13;" parent="oC8v5R6ncZ2y5Ac7K_mP-17" vertex="1">
          <mxGeometry width="85" height="30" as="geometry" />
        </mxCell>
        <mxCell id="oC8v5R6ncZ2y5Ac7K_mP-19" value="" style="rounded=0;whiteSpace=wrap;html=1;" parent="oC8v5R6ncZ2y5Ac7K_mP-17" vertex="1">
          <mxGeometry y="30" width="85" height="50" as="geometry" />
        </mxCell>
        <mxCell id="oC8v5R6ncZ2y5Ac7K_mP-20" value="" style="rounded=0;whiteSpace=wrap;html=1;fillColor=#595959;fontColor=#FFFFFF;align=left;verticalAlign=top;" parent="oC8v5R6ncZ2y5Ac7K_mP-17" vertex="1">
          <mxGeometry x="5" y="35" width="75" height="40" as="geometry" />
        </mxCell>
        <mxCell id="oC8v5R6ncZ2y5Ac7K_mP-21" value="" style="shape=image;verticalLabelPosition=bottom;labelBackgroundColor=default;verticalAlign=top;aspect=fixed;imageAspect=0;image=data:image/png,iVBORw0KGgoAAAANSUhEUgAAAFIAAABSCAYAAADHLIObAAAAAXNSR0IArs4c6QAAAIRlWElmTU0AKgAAAAgABQESAAMAAAABAAEAAAEaAAUAAAABAAAASgEbAAUAAAABAAAAUgEoAAMAAAABAAIAAIdpAAQAAAABAAAAWgAAAAAAAADcAAAAAQAAANwAAAABAAOgAQADAAAAAQABAACgAgAEAAAAAQAAAFKgAwAEAAAAAQAAAFIAAAAAJL4NmgAAAAlwSFlzAAAh1QAAIdUBBJy0nQAADR9JREFUeAHtnGusXUUVx/c99/ZJWyilFGpLEWpQUCqoVARCWylKLQaID8IH/SRRfGFQoh80haAENCHEEOQRBXyEhyHhgwqoKVYSQULB8KoB5NKWUunDPqS39D6Ov9++Zw777LP3OfucQ0oxeyV/Zu+ZNWtm/rNmZs0+t0RRKSUDJQMlAyUDJQMlAyUDJQMlAyUDJQMlAyUDJQMlAwcgA33d9qlara6k7iKwF0wG+8BEMAwGwCjoB2OgUktt7zVwW19fn+WxYMvy88ACMBUEW9qugiyxjTXYeSSrEJvTyD8NvB/k2QhVLd8IHsPeYMjsJLUz3coSKr4LDIKd4BDwXzAd7AES8gaYBEaAJC8EJ4I7QJ1Inh3IUnAoeBpoazc4DDgZWTKBzCUQNpPB/yEo1CZlCu8XgaOA7bYTJ/h0MIv693dDZi9ELqBhO/wn4GDzPFCS7KieOhecCvTAutBx+l89hYwXweMg2DK1fpbYd8nS6+pE8mz+LHApWAPuBA3t8Z6WCbR/Jf1YTsE2MJhWaPfeC5EO8BWwGkhUIIzHZqGTo3T2I5R8FGQNzMkYBH8GwZZpnuhpZwBJS4p2XA2vgrW0+xDtZrXXUAc93yVyXrKg6HMvRNrGGB1wDywqgZiQputpTy9sK5Bju63arpe36yO2bM8VY52YUTM6kXYz1c5WHiHt6uXte10Nol1jBcp7brdXIgv0MVOl2wnINHYgZL5dROa1+44lOG9AB8Ikv6P6sL+J1OPcj3rek95ilpMrIflcuJn9TWToWFedDZUPxLRXIrv1rIZ6hB++B2/thKdQr5M67XQb+tZOOZT3SmSnntVOv1156LepMV+efiAjrzxpJ6rFmSEmDXUbdNq99BKQOwkn4U1fIj0IeL/2yhju1354mAC8Zxs3mu91rqmjDAQzVfVOJv0GqR8rvJ28DiRDpOvZdz+apPMNrHeAGWAZ9kiadMxLimP5ENgE1iYLij73QuRGGjkSfBY4cD9OBPIcjLYDieHG4OCeBw23FwbrRDwKPgC8pnn9k3i/KqWJIisWBy+eGH8d/y+TMoK9LbxtAMeCw8dLWv5XO+pdDR4CHUteJ9saorN+gJAAOyFR6VTbwZNCSlZM0Iasaxs2vTf7BShpK6+P5m/BzlbSTMGe5GgzdstMpfFMy9dja6iFTsuivE62rGQhndRrXLqBpLxU9aRI+l463TQ4bGpPu0lbTXoJY8PY0eszBXuuCm0Wkcw+FalY6pQMlAz83zLQ9R4pI+xBJ5FcABYD96r0bzfuT+Z7eHgo3M2edi9prmBzIYU/BgcDN/8Q3/FYF6ODy7A1WM/JecDeBynSnlFAer81LPsLdq4h7Um6JpIOGnctB6b+POAh4cCzwiCyo4+B9eAW8BSdbzoksKnOUqAtY0hjyXQffZcACX4AOw+TNgm2jCiWgQ8DD50QciXJNF+x34Zlj2JvkLRjCYY6rkiFTwIH/Qi4ERhLJsMWBxpIkBifHdSF4FlQJ5JBS8zRYCVYCL4MtOfgkwPnNbYjwXdYhhi2OEFpWUzG+cB+XAxcHWlbtns2+Anwp4k9YBDsP2EAd4JbwUQQCGvZAfQuA/8AbgF14X0SuA9cVc9s84DuTHAluDutSp5XpafBD4ArJFdqutNI14Gv5iq2KdCDuhXreoMxlkvPdDubDcRT3/1rjpUYTNE+6T22m54Uvf8o4DVxa802j9lS67tL+3pwJO17U+tYinY6z3C1CxK15XJLi8sMc4V/TAuT1zAp2NCOd363Bg+lIqIt90gnYV6RCmmdXolM2zuQ3gPRRfsUJjc9MYXqv11EhhO0UCd7UOqUzK6beruI7GrWuxjl/monDle66F+9SqcdDR6S5ZGWdWJPXeuknSHk28lO7Lm3urw7qWMbsaQ7EfKLpJ7Y/ZxynTTs5h8fKhkNSMow9op+rVHPoL3h1OZdMjyFLe/E1nvQ3wU2g46lFyKtm+URrTrhwBxo2NiTugbEEzi1naCWUps8by5ie1KZ+n4OW0/edHAoutMst04SiTwvJep8BfwH/AZ0LL0Q+Ryt9Y+MjCxevXp12xsSg/gOOHt0dHSQgToBdXGAvNwKpvN8e70g/8Ew5YZa8Xdz1C4n/2hwteW2mUTIIz0NrAF646Z038grJJ0sywaDDHgxGe8Dx4+Nje2qVCreIOLlTur1T3LdC23D9xXobQA/HxgY+GO6w9jzy7g2vbvruW4DLtt0H5184fL1bxkfJW0S7OmRZ4JTgDaCnZCGyXRS7Otj4O/Ye5G0YwlGO65oBTrroD8D/AqkSICkhY3bAYdlbMd/RUd/SZor2DyewmuA92knJgyYx1h8l+SvYWvjeFb2f7FlP+zbVcDbk/0Loh37JoHXgT3YyzoEKWovvRIpUeHnzPatFdSAgLhfDIzH+MrooCXFVDIsf4PyMEm8NkvNjt6mZ1tXokwVU8ucrG6uuVQrpWTgQGWgp6WdHhRLyWXn5h32yH0sv6IfDtLmwpegYHMIW+6/Xcmmm6KpE3bE/Yq2bSMumhpVZ29ie7g5Xtpd2UxWekuIdB9zvyI1rjscuHe6H+0g389ZHYs2qeTe5k8OM4GBsp/O4v2RtNCXp2dWRRMPnx9NGnk9mo+xSXsM4XeyOVajsUo12nLYjmjLFXOj0VWr6ociCp1Lz0QyYD1wFrgCeOLqQQ7YU1cythFr/oiQ55+Q+m/eWwr2pqAggTfwfAJpP/UMlA1nPFyeBN8Gr5PvSZwr1VVRZfv06BR+3b4DJSe2b2wo6hs1hB8feZXj6v5tv48uP342fw//0Jtf7XON5hT0RGRtoGdjWwJfAhKoB0qEp6JLfCqx4yJ0H+zv73+cwT9LXqagM4eChcCQaj3op+4+YlSJ1DMtOxZIxXXgeezpY5my655oJZ54Sf/u6Jzh2vle5SvlKEtbIitgdG/0wsh6/nlJX/TTXZXo5RPuKfwNs6FNj/+uhEHPoOKJ4HzgsjM4XkvaIOgdARHzyfw08C79ctbgyXdbOA58HujhN6P3HGld0JHEs4BEfwLo8U1tkhdtvzs6fbQaXTwwITpnX+yL5jaK3PKnWwuxcgmcbp4+HN1F1ouNWsXe7Ei3onfoiTsZ8OdA5oDI3wy+qR5YBmZASNZK0OMk8WT0LyRdB9LyLzJ+Qfly0nPBirSC7/wBWqW/Et1cqUQrRmueWNcLUWTI4B39fjzyh5WB6NzVS+LYMpQWTnsh8lSW3UzuzrdBjEu5nXwfhRfATRCRHo51VwH30ItAfDc2TYr1wL7aRHg3nj08PHxmUqe6Opq8405+s+Ew4d8gubU0SnoKeR//t0qo9UWfWjg7+mJjhWJvvRC5iCU7xL73CE15O2gpEPAqCkPg3TmKevgAei/llNezJZSXG8Fu+nBevcCHfVF/f1/EL5vxHt1QFL9YMym1dxNwCKTOSRYXfe6FyBk0Mo1BvQLchYqIHpIeSqjnae3PskX79CD6QxDp9lKXHZuIGt6I91ijiWbJ8MigRBERUXy6h6zCadFOZxmUvErOfpelb54Bdas2tZlHtPWT4qS4Egy36sIpfNDwrui9ZAzUM5MPaeuN76MYbd4OkvVznlsNKqdKPVtSvLX4T3OL2nFw6e0/GDSMGakt25DXKp3mHo1CQyxJVLurMiN6kiWafaNq4ZHYGuBw6ur2VJSApgExCL8tetIaNDd4RZMyGRwKHyeZD+nulQ1S8+oNZPovaOc1FOa/XErRbvCzpMre6dHI5ClxLJu93TR6YN3/5ZeiLRw4RpkdS9dEsjc9BjxlDUX8s5XMJUH+ADgMXf+u5xie/dOUrHZ/R7mDP4/yecA9s0nInwyOoeAMbPop7b6k0rzZ0fDkgWgXh83WsbH4cEsWx4F4Q0aNQfT3wOQ6wqYnGsoLvmQNqFBVB0Dos5ZBnUOFucABTgWS6qFhOpV8A+1jGPRppBtIf03a4BcuZ/Bb8vWwb4GzwMHWr9nRltDW7Fr5etIXQIP0LWV7uCDaRqD9JK14UWj0zIaW4XX8dB/BEzcQwK+Ze1d2gN/QSMZL9oacoZiVxdL2iuafwt1C+cPAoNyl4QS5Fy5AR89ZxvP1QK/zjpwaDrnjIsmD4FpI+x64j7p6nFuHB4uhzhLwFLgBPA0yheVx1SjLFE/7AlfBhfWNOb1HVthLq9E2Ovz1SZXob5nGCmSmzRao8qYKA9UTjwTHgWOBe6YkGi9Oqr1LggRLyGuQaFmuYPMQPP0C9JaDKcC9U5v2dTt4Hpjn/x3Ae32ubL+X/zHIzujEsZ38ttQXXymPqw5F0/lo4d1qIwY3j+2NnhpbHz0wdSB68NB74ttXrr1WBT0RmTQMAUt5XwSM3/R0lxSOEd9WbmfQhU9DbPVB5kqC/fnUd6/Ug7X5V+x05DX80d/Era9Es/DKFZzki0aHojl8tJDIdQzeCXnmiGvjv/HksZSSgZKBkoGSgZKBkoGSgZKBkoGSgZKBkoGSgZKBkoGSgZKBLAb+B7DOf5hte5uzAAAAAElFTkSuQmCC;" parent="oC8v5R6ncZ2y5Ac7K_mP-17" vertex="1">
          <mxGeometry x="22.5" y="35" width="40" height="40" as="geometry" />
        </mxCell>
        <mxCell id="oC8v5R6ncZ2y5Ac7K_mP-22" value="&lt;div&gt;&lt;font style=&quot;font-size: 14px;&quot;&gt;Analytics Platform / Data Warehouse&lt;/font&gt;&lt;/div&gt;" style="rounded=0;whiteSpace=wrap;html=1;fontColor=#FFFFFF;fillColor=#4DC5FE;strokeColor=#4DC5FE;fontSize=16;shadow=0;" parent="1" vertex="1">
          <mxGeometry x="380" y="336" width="260" height="30" as="geometry" />
        </mxCell>
        <mxCell id="oC8v5R6ncZ2y5Ac7K_mP-23" style="rounded=0;orthogonalLoop=1;jettySize=auto;html=1;startArrow=oval;startFill=1;endArrow=block;endFill=1;strokeWidth=4;strokeColor=#4DC5FE;endSize=3;startSize=3;" parent="1" edge="1">
          <mxGeometry relative="1" as="geometry">
            <mxPoint x="423" y="390" as="sourcePoint" />
            <mxPoint x="423" y="366" as="targetPoint" />
          </mxGeometry>
        </mxCell>
        <mxCell id="oC8v5R6ncZ2y5Ac7K_mP-24" style="rounded=0;orthogonalLoop=1;jettySize=auto;html=1;startArrow=oval;startFill=1;endArrow=block;endFill=1;strokeWidth=4;strokeColor=#4DC5FE;exitX=0.5;exitY=0;exitDx=0;exitDy=0;endSize=3;startSize=3;entryX=0.815;entryY=0.967;entryDx=0;entryDy=0;entryPerimeter=0;" parent="1" source="oC8v5R6ncZ2y5Ac7K_mP-13" target="oC8v5R6ncZ2y5Ac7K_mP-22" edge="1">
          <mxGeometry relative="1" as="geometry">
            <mxPoint x="515.5" y="393" as="sourcePoint" />
            <mxPoint x="515.25" y="366" as="targetPoint" />
          </mxGeometry>
        </mxCell>
        <mxCell id="oC8v5R6ncZ2y5Ac7K_mP-25" style="rounded=0;orthogonalLoop=1;jettySize=auto;html=1;startArrow=oval;startFill=1;endArrow=block;endFill=1;strokeWidth=4;strokeColor=#4DC5FE;exitX=1;exitY=0.25;exitDx=0;exitDy=0;endSize=3;startSize=3;" parent="1" edge="1">
          <mxGeometry relative="1" as="geometry">
            <mxPoint x="512.5" y="336" as="sourcePoint" />
            <mxPoint x="512.25" y="309" as="targetPoint" />
          </mxGeometry>
        </mxCell>
        <mxCell id="7or_H2I2M1jhDvwkGGvZ-2" value="" style="group" vertex="1" connectable="0" parent="1">
          <mxGeometry x="40" y="100" width="290" height="380" as="geometry" />
        </mxCell>
        <mxCell id="oC8v5R6ncZ2y5Ac7K_mP-4" value="&lt;div style=&quot;&quot;&gt;&lt;div style=&quot;&quot;&gt;&lt;div style=&quot;&quot;&gt;&lt;font color=&quot;#000000&quot;&gt;Embed analytical content such as reports and dashboards into a business application.&lt;/font&gt;&lt;/div&gt;&lt;/div&gt;&lt;div style=&quot;font-size: 16px;&quot;&gt;&lt;br&gt;&lt;/div&gt;&lt;/div&gt;" style="rounded=0;whiteSpace=wrap;html=1;fontColor=#FFFFFF;fillColor=#FFFFFF;strokeColor=#4DC5FE;fontSize=16;shadow=1;align=center;verticalAlign=top;" parent="7or_H2I2M1jhDvwkGGvZ-2" vertex="1">
          <mxGeometry width="290" height="380" as="geometry" />
        </mxCell>
        <mxCell id="oC8v5R6ncZ2y5Ac7K_mP-26" value="" style="rounded=0;whiteSpace=wrap;html=1;" parent="7or_H2I2M1jhDvwkGGvZ-2" vertex="1">
          <mxGeometry x="90" y="160" width="110" height="140" as="geometry" />
        </mxCell>
        <mxCell id="oC8v5R6ncZ2y5Ac7K_mP-27" value="Application" style="rounded=0;whiteSpace=wrap;html=1;fillColor=#000000;fontColor=#FFFFFF;fontSize=16;" parent="7or_H2I2M1jhDvwkGGvZ-2" vertex="1">
          <mxGeometry x="90" y="130" width="110" height="30" as="geometry" />
        </mxCell>
        <mxCell id="oC8v5R6ncZ2y5Ac7K_mP-28" value="" style="rounded=0;whiteSpace=wrap;html=1;fillColor=#595959;fontColor=#FFFFFF;align=left;verticalAlign=top;" parent="7or_H2I2M1jhDvwkGGvZ-2" vertex="1">
          <mxGeometry x="100" y="170" width="90" height="40" as="geometry" />
        </mxCell>
        <mxCell id="oC8v5R6ncZ2y5Ac7K_mP-29" value="" style="shape=image;verticalLabelPosition=bottom;labelBackgroundColor=default;verticalAlign=top;aspect=fixed;imageAspect=0;image=data:image/png,iVBORw0KGgoAAAANSUhEUgAAAVkAAAFZCAYAAAAy8lzbAAAAAXNSR0IArs4c6QAAAIRlWElmTU0AKgAAAAgABQESAAMAAAABAAEAAAEaAAUAAAABAAAASgEbAAUAAAABAAAAUgEoAAMAAAABAAIAAIdpAAQAAAABAAAAWgAAAAAAAADcAAAAAQAAANwAAAABAAOgAQADAAAAAQABAACgAgAEAAAAAQAAAVmgAwAEAAAAAQAAAVkAAAAAwupN1QAAAAlwSFlzAAAh1QAAIdUBBJy0nQAAEK9JREFUeAHt3UusJFUZB/DqvnceMC8QDAFnYWJAERCDxmBEAzJG4kYWYEhUlpgoGhNYuJM9MTFBUGOEwEJAI4iJCx6jGzUhKBvUIJiYyAQl8hxmGO70y/+5cOdxc53pvpnqW9X9q8m5VV1dVec7v9Pn6+rqnu6qMhEgQIAAAQIECBAgQIAAAQIECBAgQIAAAQIECBAgQIAAAQIECBAgQIAAAQIECBAgQIAAAQIECBAgQIAAAQIECBAgQIAAAQIECBAgQIAAAQIECBAgQIAAAQIECBAgQIAAAQIECBAgQIAAAQIECBAgQIAAAQIECBAgQIAAAQIECBAgQIAAAQIECBAgQIAAAQIECBAgQIAAAQIECBAgQIAAAQIECBAgQIAAAQIECBAgQIAAAQIECBAgQIAAAQIECBAgQIAAAQIECBAgQIAAAQIECBAgQIAAAQIECBAgQIAAAQIECBAgQIAAAQIECBAgQIAAAQIECBAgQIAAAQIECBAgQIAAAQIECBAgQIAAAQIECBAgQIAAAQIECBAgQIAAAQIECBAgQIAAAQIECBAgQIAAAQIECBAgQIAAAQIECBAgQIAAAQIECBAgQIAAAQIECBAgQIAAAQIECBAgQIAAAQIECBAgQIAAAQIECBAgQIAAAQIECBAgQIAAAQIECBAgQIAAAQIECBAgQIAAAQIECBAgQIAAAQIECBAgQIAAAQIECBAgQIAAAQIECBAgQIAAAQIECBAgQIAAAQIECBAgQIAAAQIECBAgQIAAAQIECBAgQIAAAQIECBAgQIAAAQIECBAgQIAAAQIECBAgQIAAAQIECBAgQIAAAQIECBAgQIAAAQIECBAgQIAAAQIECBAgQIAAAQIECBAgQIAAAQIECBAgQIAAAQIECBAgQIAAAQIECBAgQIAAAQIECBAgQIAAAQIECBAgQIAAAQIECBAgQIAAAQIECBAgQIAAAQIECBAgQIAAAQIECBAgQIAAAQIECBAgQIAAAQIECBAgQIAAAQIECBAgQIAAAQIECBAgQIAAAQIECBAgQIAAAQIECBAgQIAAAQIECBAgQIAAAQIECBAgQIAAAQIECBAgQIAAAQIECBAgQIAAAQIECBAgQIAAAQIECBAgQIAAAQIECBAgQIAAAQIECBAgQIAAAQIECBAgQIAAAQIECBAgQIAAAQIECBAgQIAAAQIECBAgQIAAAQIECBAgQIAAAQIECBAgQIAAAQIECBAgQIAAAQIECBAgQIAAAQIECBAgQIAAAQIECBAgQIAAAQIECBAgQIAAAQKNERiNRp3GBDPlQOa57VOmnrnqGjlorv95tfD2jvM+WVWdizqdznBS9fcMe9VHB29Xg2ph0l2rrdnr4v5SZzDhniXI07PvJb1e1Ztw32pUdXsL1YF/VluevPy6pecn3X2a2yfZXJD69qQsTbPeDaxrS+rem8fh3zcwhpNWnX45Nxt9OmVXysRj5qQVNG+Dbr/ff25xcfEP6Zt+88I7GtHi0cUGLe3evbnzWvW1rWcvfGXUH40dWNmyPGtsHS5U2/sL1WDCp5Cy/2mjbrUrXdZfPtLYVSdPVtX27Lt90uxcquhW1cv7O4c61fBbudXoJJv4rk65M2WeppvT2EYn2cR3ScpdKWelzMW0sLDwUBr6pxRJduIe35dkua1zsPfmsBpOkGRLPSWvLo2G1VvZb9J8VxLlcDSq9g/Wv++BVDppvYtJspleT45uw9lhG2JcBj2Ff9rQ5vIC6vWUuUmyOXs/mLPYMmwbPb0zvBsdouAIECDQXgFJtr19J3ICBFog0Mxrsi2AE+JRgbxsq/KybX/mb2Q+4ZXwo8fZyKXEXl52ljeNdra0CWvypVmvpD2H1ryzJStL36QN70u4rTwplGRb8kBrcpgZAGUc/Dbz+xLn6U2O9f/FltjfGgwGX82bKddmm1Y+UazVtvTLfcPh8M/lvrRtrU0avy7xv53Y706gOxsf7BoBzmaSbfyl8DV6ouWrMpif7na7D7e5Gb1e76K049ok3DY347jY0yePpj2PHreyhTfSL+UTLa1Msq08/T7RY6Tk197yIJFpT+RUw32bazjmVA+ZhLRpqhVOp7Kt06mm9lpa+8w3k0l2qdOdndd7tT92VUCAQJ0CM5dkC1bzPzlXZ5c6NgECTRKYySTbJGCxECAw3wKS7Hz3v9YTIFCzgCRbM7DDEyAw3wKS7Hz3v9YTIFCzgCRbM7DDEyAw3wKS7Hz3v9YTIFCzgCRbM7DDEyAw3wKS7Hz3v9YTIFCzgCRbM7DDEyAw3wKS7Hz3v9YTIFCzgCRbM7DDEyAw3wKS7Hz3v9YTIFCzgCRbM3CbDp/v7Gzt18m1yXmcWNMXs/IVheM0d6a3kWRnuntP3rgM5o/kFwG+m/ml+XLn5S/hzbJke3K6urc4O/1wc75IfE/dFTl+vQKSbL2+jT96EuyH82XVtyXQOzOob0w5ZyXZNj742Q6wnMnekp9duSuJ9valpaUPzXZzZ7d1kmxj+jYnkaPhRvycw9vvEnwq85+k3JFEe12Kx8bRx8bw6OLUlnqp6b95wjt/cXHx1k2bNt2RJ8Rb0y9nTS0CFZ0Sgdn8ja9TQjPtg+QVeqebP4MNqPhIleUnZK5P+Wx+vO4zOYN6JIN7b7k3gzvjfW6/Dn172l/GyvZiMYWpnzrOTDnyczix31NK1n0ssTyU+UO5PfUHS+o1TSggyU4IVsfmw5wndTbt3HHu+d++YTS67ZLUMa1+6WfArn4ZWs6mz8olhG9mEH8+99+V249n+W91tL0lx/xS4rw45UjSqznucuZcfjRw9xr13JB1V+VJcE/65t70yx+P2ca19GMwmrI4rcHclPY2Mo5ykaCzsG37zjMu/EICLGVqUwbp6rqOrMh9F+TO76f8rt/v35Prgw9kef/qHWb8dnnSKZdSSmnCVOI5J0+CN2X+8VxC2Jvl72W5XPZxZhuEpk2SbEN6ZFQNR73+4TJImtgnVyXBXp6zp2uSeM9cIzE3RLGWMI486dRy9MkPuhJPSbaXJcFelvml6Zt/ZXnX5IezR90C3tyoW3h2jn9akuv7U8r1QlOzBFYSb7OiEs2ygCTbmAdCp7PQXWzSWWw5U1qZ/pGF7yTBfjnze1ZWzsn8WIcmNHklnpJYn84Z7O0HDx68MWexd+f2G00IUAzHCzRpUB8f2RzdWr4sOlw6tHTwxb+k2S+kLEyp+YO8ebI7yfMTa9RXBvFrGcQPpDycTxk8XrbJ9levse0sryoO5c2lv6ZM842vXbG+Mn2z+iNbJZ6XUh5JuTeXcZbf+Mq2F+b2tB43qco0roAkO65Ujdt183pi1Nv/5qsv/Oz+cz94y/2p6rQaqzv20IcyiL+YFauTbLkk8OuUB3OG9KsM5MPH7LRyJnXMqplffDAt/GHKtD7ClU/P9c7PE9sHUufqJPtA3ux6OH3yy/Td6je65rFvGv/gk2Qb0EXl1KQa9fv7X376pQyc/0wzpHxq4N8ZsEeqzBnRU4nhrqx4LPMXj9wx3wsHYtELwWvTYkg/vJq6Sp0r0xN5RfFonvTuyX9OeGVlpXnzBSTZxvRRp9PdvJhsd+y4mkpwW96tZV/mP0rSfWzz5s1PlXUZ6Mktc/sfEN5lWZ5txHsX5dLEe1OeT3J9JP3y0y1btjx7bFCW2yEgybajn2qLMmexL2QQ35szpF8kof6mVLSSXCXY2tjHOXD53Gv5/Ouz6aMnxtnBNs0UkGSb2S/TjOqZJNjyv7veXKlUcl2R2ND5y+mHH2xoBCo/JQKS7ClhbO9BMpAPtjf62Y08/VLOZE0zILAR15pmgE0TCBAgMJ6AJDuek60IECCwLgFJdl1sdiJAgMB4ApLseE62IkCAwLoEJNl1sdmJAAEC4wlIsuM52YoAAQLrEpBk18VmJwIECIwnIMmO52QrAgQIrEtAkl0Xm50IECAwnoAkO56TrQgQILAuAUl2XWx2IkCAwHgCkux4TrYiQIDAugQk2XWx2YkAAQLjCUiy4znZigABAusSkGTXxWanNQRm4av5ZqENq7tmVr7Kcri6YW257ftk29JTDY8zv6ZwTX78L9//3V35OZuGR3x8ePl1iKW04XOJ//g7Wn4rbbop/XJlaUaL21Z+yHNHaUMbJ0m2jb3WvJg7GcBX5Iumr2heaONFVBJQEtJySTvG26kFW6Ut1+eHF1sQ6eyGSH92+3aqLZuFxDQLbZhqp6tsLIHZem00VpNtRIAAgekJSLLTs1YTAQJzKNDMywW787PUr422bdqxUI36o4m6pWy9OdfWTu91q/6El9bKvqflz87s2K8m27nsu33UqbYPJgr3nY3zVHdof3VGZ1i14U2jNsS4jk444S5taPOmtOCME7Zixu7M5Z1tadJkA3UDDJqZZPftOzzacd6Pl14d/X7USeqZcOpWg+rA4UF2XJhwz6oa5t8bSZSDqqTN8acSZC/7HuiV+YTTqOoOF0YHMntywj03YvO9qfQbKUsbUfkG1FkSbGlz06dnEuDXU3alTDxmmt64NeLrDgaD5/Km3rw8DtcgsGrmBPLue+PPGupCn+e212XquAQIECBAgAABAgQIECBAgAABAgQIECBAgAABAgQIECBAgAABAgQIECBAgAABAgQIECBAgAABAgQIECBAgAABAgQIECBAgAABAgQIECBAgAABAgQIECBAgAABAgQIECBAgAABAgQIECBAgAABAgQIECBAgAABAgQIECBAgAABAgQIECBAgAABAgQIECBAgAABAgQIECBAgAABAgQIECBAgAABAgQIECBAgAABAgQIECBAgAABAgQIECBAgAABAgQIECBAgAABAgQIECBAgAABAgQIECBAgAABAgQIECBAgAABAgQIECBAgAABAgQIECBAgAABAgQIECBAgAABAgQIECBAgAABAgQIECBAgAABAgQIECBAgAABAgQIECBAgAABAgQIECBAgAABAgQIECBAgAABAgQIECBAgAABAgQIECBAgAABAgQIECBAgAABAgQIECBAgAABAgQIECBAgAABAgQIECBAgAABAgQIECBAgAABAgQIECBAgAABAgQIECBAgAABAgQIECBAgAABAgQIECBAgAABAgQIECBAgAABAgQIECBAgAABAgQIECBAgAABAgQIECBAgAABAgQIECBAgAABAgQIECBAgAABAgQIECBAgAABAgQIECBAgAABAgQIECBAgAABAgQIECBAgAABAgQIECBAgAABAgQIECBAgAABAgQIECBAgAABAgQIECBAgAABAgQIECBAgAABAgQIECBAgAABAgQIECBAgAABAgQIECBAgAABAgQIECBAgAABAgQIECBAgAABAgQIECBAgAABAgQIECBAgAABAgQIECBAgAABAgQIECBAgAABAgQIECBAgAABAgQIECBAgAABAgQIECBAgAABAgQIECBAgAABAgQIECBAgAABAgQIECBAgAABAgQIECBAgAABAgQIECBAgAABAgQIECBAgAABAgQIECBAgAABAgQIECBAgAABAgQIECBAgAABAgQIECBAgAABAgQIECBAgAABAgQIECBAgAABAgQIECBAgAABAgQIECBAgAABAgQIECBAgAABAgQIECBAgAABAgQIECBAgAABAgQIECBAgAABAgQIECBAgAABAgQIECBAgAABAgQIECBAgAABAgQIECBAgAABAgQItEDgf7DcTusL+DmcAAAAAElFTkSuQmCC;" parent="7or_H2I2M1jhDvwkGGvZ-2" vertex="1">
          <mxGeometry x="105" y="150" width="80" height="80" as="geometry" />
        </mxCell>
        <mxCell id="oC8v5R6ncZ2y5Ac7K_mP-30" value="Analytics" style="rounded=0;whiteSpace=wrap;html=1;fillColor=#595959;fontColor=#FFFFFF;align=center;verticalAlign=bottom;" parent="7or_H2I2M1jhDvwkGGvZ-2" vertex="1">
          <mxGeometry x="100" y="240" width="90" height="55" as="geometry" />
        </mxCell>
        <mxCell id="oC8v5R6ncZ2y5Ac7K_mP-31" value="" style="shape=image;verticalLabelPosition=bottom;labelBackgroundColor=default;verticalAlign=top;aspect=fixed;imageAspect=0;image=data:image/png,iVBORw0KGgoAAAANSUhEUgAAAIUAAACFCAYAAAB12js8AAAAAXNSR0IArs4c6QAAAIRlWElmTU0AKgAAAAgABQESAAMAAAABAAEAAAEaAAUAAAABAAAASgEbAAUAAAABAAAAUgEoAAMAAAABAAIAAIdpAAQAAAABAAAAWgAAAAAAAAEsAAAAAQAAASwAAAABAAOgAQADAAAAAQABAACgAgAEAAAAAQAAAIWgAwAEAAAAAQAAAIUAAAAA4Rl6owAAAAlwSFlzAAAuIwAALiMBeKU/dgAAITVJREFUeAHtnQd8FGX6x2dmd1MpoXcISFWaJ4iCKGBHRWyIp+jZQD3LeU3v1L9YrnqWw8rpnWdHUM+CiKKCIGAHFASFUEKkC4SE1C3/72/ZDQnZ3cwmm5DgPB++vLNvm3ee95nnLTO7MQxHHA04GnA04GjA0YCjAUcDjgYcDTgacDTgaMDRgKMBRwOOBhwNOBpwNOBowNGAowFHA44GHA0cwhow69u1BQKBFrQptYp2qd0lsNs0zeIq8jrJcWqgXhkFBqH2PAbHgzvGtSjfSrgLo/gqRj4nqRoaiKX4alRX4yLq7HbQI1STL0KNFnEe2AspEdKdqBpqoL4ZhS4n7L0e5Xg25CsyJAHCY+C60Odw3tBHJ0iEBuqjUYSvaz0Hn8PucAShjCIDCsExCJRQG1KfjUIG4GfO4C9/4cw7FB+mfJJznCANaHx2xNFABQ3UK6MIeQV5AbtSwYvYLeTki62BWhs+8PKtOXVj2EBne2M1g7xJpA+Ck6E/2GlXJvl+SVmtVuZzjh2EMYW8ncggQ9pC/kgrm5jlfyqJdpRfXV1cScGRMJfOeJ4wh46o4AWIl6caBhfAEMgEbV7lQh5E6jitRnZBHxgDR8Fy6nqN8F3OsZOwgpDWhIjTYTxsgCdgFThSVxqgEw6HZeCFTfA2XApaOQSF41ZwC3wMuZAPH8IdcDZ0hEpGS1wzGAbXwoug+gvhe3gMjgKXTkLohuNB8d9CEWyFSZC8ryXO/3WiART+KOyF1bAZikGd9l84EQbBE7ARlPY+XAODQcYS7NRojSXdhMbQC8bCf2Ab7IY5MAZU152wGPJAxrAe1K534Oho9TvxCdYAyh4Fa0GdrbtZnfYk7AB1yBcQ9g5bOP4LHAvq5Lj3Hijjge4wCVR3ASyBhSBD0ef34AqYAItAXuk2KPNcCVaDU11YAyg5BV6DEngLuoAL1GmXwExQJ0nkOa4HDRMxPUO4/lghdTSBU0FeQMOERMahzj8aGkEaaHj6ET6HU2LV6aQlQAMo+WIIu/EzOC4bt3UMR8JvQIYjI9H8IG7vEK2p1CWvMRyeggfhNGgJZefguD/IOOXJHoIO0epz4muoAZTbGjQs+EHzhZaRqiQ+AwZAo0jp5ePIkwTt4DDoDHbKuMnXCzpBpImq0jWsbYA1MB7KjKb8+X+qx5WUVgNFXEHZAZAN/4byzyz4uE9YMio+Yppy0EFapvYHLVWPAO13yONoeapVShbhYviUuvYQVhDitCfyXYXIch+UTh0zidJE8+dwJiwFZ4mKEiQJMQqU3IW6LoV0UIdrD0EdU6nTiIsq1KONqPPhNJCBtQftbRSBHpcL7WGo7vnkf4FwecgQOKxaKKM6OoM8ma7/JFhA/GrqibQvQvJPSxJiFKhMnfYG6P0GKfx3oP2CVwk/Qdl6SyqmkLc7GSbBOGgDy+B/IM+gjSztespIfgZDQYbXA/5J2cWcQ22IKeTrRYYzYDQMBm2CLYDvwZFEawCFt4EL4QXYBVoBfAR/gN4Q1QBJU9kHYAdoM2oKaJLYHsrKcdwUBsGvYQkUwjugJW3UFQxpbUGT4JdgM2gFJE+jSW8/0PDkSG1pAAXLALTUnAMyDHW0VhuaXJZ1cPj8xFlwE+SAOux20CQx6uSPtHQ4Hz4DGcbj0C1cZ/mQ+I6gZegq0IpjOfwNToAqJ67l63KOa6ABlK0Z/lB4AvJA+xbHQySj6EO8NprUuf8AW0tE8mn5eSVoBbEFLoJKdzxxPeBtkMhQLwRNXh2JogHN9BMumvjBIir+AApgA2xWPOGBogdVusv1Iu4M2AJVCnWVkklzDs0JMuB40ET1QMkhYlMo8ivCOZTddmAm5/N+DdSKUeyvPjjp1Gx/DegVugrCHSvPoUmjOnU2rKfDbK8AyKsnojIKdfog6AgVhDw672aQceoJrJ6YOhJDA7VtFFpFqOPVKbqzD5SmRHQCGY72CrTcjFe+oYC8SyY0g0iiVUY+6HxaNjsSQwO1bRRpnFvn0JLSH6Edumu1jJXB/BgKCeKSHeSWF9ALPTpfJJG3KAEtayvNayIV+CnH1bZRhF+qibZclKEoj1YayhN1xUFaNAmXUz3h8x2YV/WKSIZ5YN6f/OfaNgrtaGqOoDlDJMPYTbzcuu5eTRLlNeIVrVbkcTS/UF2RREtP1a0NLnkMR2JooLaNIodza2jQvEGu+0CR0WgSqs46FqLNCUiKKppgtofVoKEkkmiCqeFFcwsNZY7E0ECtGQUrC9Wtu1IuvTtUeomGlYHSPgR15inQl3KV9hqIjyjk7UrCCdASFsNGqCDkkZeS0cgoneGjgnYif6iVSRcdoaXh0aDnDJrta3URHkK8HJeX9/lwPsgoLgFtc6/AYA7MR9J+IY8M4TLQM4z1MB+2woGifOEVxxCOx1F2DqEegFX5vCRcGWVUR3OI5PGM3GLDeHj5NuOOD9kCiToI+ouNnTt3GJNH2j5v+Px1GSbUKFCclnxHwplwEbSC7+Aj2A7yDBWEjpERPEek7vqxoHnGc8R9TZpWFRWEeHmgznAeTAB1weOwhPyRPIGGKHkjGeXP4P9gGLxKXYsI9ZZ5TAMkj0TeTueU19F1aOJaJoGAzzB9VsBwEe2L4IBNtu1NzzojrfE0CmWVFayHBwkxCpSru+dwGAm/gCMgB96Al0Cv3u8ljCZvkpAJV8PloE5Xp60glDFpSam2qmO7wGiQd9FQoyex06l/C2ElIV5vgsloPoML4GRQeXmN1+FN0pcQ7iBvJaMlPiyZHFwIPUHXorlSmQQoXOLzpxiWlRw0jLKU0IHJPDsQ+NLwJMlAD32j4CLlVu8EKVvziAXwGrysTiGMKeTRgyp1nBQtxY8C3c1LYSVogigD6AaDoQ38ADPgMZA3iirU7ydR72TKyOaDjEMGfA0cC/eCDNMH0UR1iE0wD9aBCUHJL/GlrM0tPYqeP8HwRajGxHuYFuXtOKVwrQcnTIinoOnSQmvgdjBkBLfAl3RGBO2QEkHIm0+nPUKSjECdNgB0Vw4CzUnUIXtBk9Jl8Ba8TrkqjY58QSGvhqOZnEfl74IJoOVsKsTyEiSXyQaOnqSueWUxOvj9x42Nds1vNFwujEJNbbiSEKNAQdtDHdoDVWhi1wJkIBGNgrwWZSppjjjdRu+SvpBQ4z93npEJ6SAvoonk17AY9NW/iB2p+kmXR4+YTlozaAVqw0yYG6k9xJcXeQWhunVtFaVdusuw/KQpOYa4XNHaFKNQ3SYlxChCTdbYPg7OgOvhWzonu3zH8Fnn6yw4lkfYHqkziMsnbX4IAvtCvdqP6AN6XL+WMO+ANqQRNxY0PMljvEP6ZkJHQhqowqzt6wnFai7xEOTAKXASyC3rZVx9o6sthyPhDngGroIuxMtQEiLUlUFFMsop8ADISPU+hVYoYdEc4jRIgjfgE7Ar4btcHiN+CZeOv2SdlkhYh6jVGIZev3ubwyvgl/AJn3UXdgPdnRrDNbxIqZp3qBP1itxKyhZyXC2hvNy5jG4M6LxdQXFHwmyYRp7PCDVcnA0DYS68x3n3ENaNVM+U6qZt5c6SUKMI1fsw4QmgieKFoJXDJXB46HgeoQxgMNwAmkw+Tad9Sbg15HE4rFooI08nw+oOF4HOp+HhI9AGkYYRGYGGihchD0aBhqc3QcOHXbFxn6s5VYhmRvVcEm4UdOr3dNbzXPct8DuQm86Fb2A6vAB7QctBdeTJIAPREvYtymoesBP2UFclFYYMIZ10GYO8wwj4OfQCGeA0eATWgeqWdxoCN4F6TferDGSeHQMMnU/DYHPQtVRTsClt4VueFsZ9y9KN3/YvwLXaMLRqnq4GxRJuFKG2PEWosV1uOgdmwROgreXgQh1l38fnr2EiaJVxFYwHrSw+htfJkxXOz+ewaPjR3X4SjICOoDtfdT0HMyizjVCiOhYRam4hL9IXlDaTPN8RRhXKeUhsBqq/P5wDMkKVj9KZGp1kdxFEP9Vl+jtgCBOMZHeGMWXlMmPKV1uNnbm72PYO6iRCqYMS5a6Ns6LwnSh1KnWr49RRi4grLn8uPkuxs8mnid5YUMfpblcZbZMXwrOwG8qLDOg20NAQ3rN4j2N5IBmdjzp1Xbq7i/msTnyEuPcJr4CtsBAiCvnCxqD6R4OGn26g9qstG0BGGL/o14RNjDNgYWCB7w1f0v+M5m1mGVNWZxltu+80xtnf19HJL5g8OalJR6PRv6+aLM+aMKm1qU+oYyr9ul20lpNfQ8JQ+CvIw9wMz9KpFYyCfKcT/zeQx3gAXoJNISPjMLjakXGpLnXgUsgNGYsmn9yslZVPvbrFtZw9AuSxzgedQ+fPAc15PgR5so2V6nhwSYbhSmYpbt1j+CqNehQ5UFC9bgzT3Og2vNN6uDa8PNzzcda/Jv1tDzmjeKJ9dVwwfborpWhDC7O04Agz4Bqc7HNP/dekW3MPPEN1P+uOqhVBaXG5RPLrtyt0N2+EfjYaFbzjKfdD+bzUoWu6ADSHKICnQc9RNFcpIH8lhZOmuUJHkCFcDZmg+cnH8Bq8SblswgQKzWCpjml0bmzl/7atZ/uYEjPtiUufufeVbp29WyePnFxJf5MnT7ayO6Wme/es6s5lXMzjtysZknyFZrHa+mSiGqe7oz4JOgpOBKtqk/JJwuG+T/v+16T1NGgKrUD7IjIMzSn0xaBkwjLhcyofhsFDcDdo3qAh7VY4D2N4xLZBBPyR2kM10cXDRm1ba6vVxcrubVqBP/NU7eHstcbACx64We0Ki3nDlCnJ2Z2NTJ9RcqlpBKbj8n4T8PszAj5/htsyrrtk6p/ahTPXNKw1T1HThlWnfKiDL6LsQPgc1oG8joaEx+FdeIx8nxJqeSrFyzv8DjTkyBs8D1MxhBzCWhVZUIa1x+jpxokxEeVfmmUyhzGt7unpGfdMePa+WRvX7i1u18HTYo+VO8QyXDdbhn8ExhDccNnXuOAeTTePy3edMXnyneCvaaPro1GE3btcekqoo8PXqTTFR7sjTyVtBEiegf9AD7gBzgJNHI+DF+EFGAVKawHz4e+gx/zVVKxFcfuSwjs+nVybjeZWLpOIfZfE9Vrc/f1Ml/mQVVzQObODe6ER8F7HoMcEld/r8IfVs/88GFNjvMwlF7W3pr1kGCv2p1TvqD4aRfhKhoQOtAopL4fzoRlsKx+JMhWnCaLSp8MCOlfj8kq4jvRXCDV5HQ6/BM0dJDIAGclfyL9KEXUhDAFBY+juXldmEGXnldfgZR7ac58Z8BZiIGn+WE9e9RjBZ7RJdVm3MO/4BVTTqPe1oL4ZhW4DXZA68zyQa48kyrMZyt82MohjQMtUGUCFDkbBH2IYi4nX0lfeoR+UwFS4n3TVF7dQp25xs8+zP7jW5+dZpbRMMfRrhcYdWHEja6/R1Z1tpOEtwl6iQp5gBXQ2O7QBX/nLrJCr3AfmRn7f6dntg97v/XIJcR/WN6PQBSyHZAguHxURQdQRa0HLNzog+I3zsRx2AU0Y9Ss3lTRJnLzOM+SfTTgR8uF54rcT2pKQEWicUPs8kAHtZp7RvNOjy6zun24rMnYWWf7tRT4jv9Rn+v2B4Pq3vNd3YfetrF1GN9fGyAZBhdWRgOFvmur23v7F1KM+GjTpSzvr4oin2TeQRUxqOJF01N20VkPCFrieTp6b6NaXM4Y21D0SzoRjQYZYSYp9/sD3u0oC838oMN7OyjMWbSkw84p9elPTaMYcYnDSMqO9a2tCjEJDkYcnAl3dOUZXzw97igOu3182YY48YLWkwRsFnaUhQ95hCNwCWjkkbCOH+uSJpCetYCbBRaCJaVjkkbQfotWM7k55j8aQBmX6Xb+nNPDUNzuNF7/dbqQUrTGPSVmSEINgNWK0c20zennWGilsGvsNl9+yrKy1+ebgWye9Xy091MfhA13aEzpLbvxyGAgfwge1YBDtqPd6kCfS3odkE2hrfRZ8Adrh1DwoKLQriYNMkKGOhhMzm3ha3TusjXFT/zTjrWWbAwu/cxt+v0+bV9UWeZzenjXBCauP0cwffO6iH4Hxd+jSKOkPVHxrdSqvSZuqc76ElkH551DhvdATroIX6Zxqj6WUryDUP4KIP8OxoYQlhA/Cq5xH3sGWUI+MaTzcBH20tvg6OyvwwuJZxubdO0y3ZX8pq45PZ2rU05NldAgNP5EmqpbL3LElL+WYGye9k2WrkeUy2W9NuUL14RBFy0VfAlqCTgP9GFpCDIK69abYL6jzOZBB5MCvYBjneC4eg6CMnrXo2ctUDvU85la+AJI7oHN388aTx5t9O3YPeP0+ZYsp6ngXr7z2ZAk7PPnT4HxEBhLJIFQR+1tNWjUp/XvMSqMkNlhPQafJnWsOoTH8KpT+dpRrjCtaBkEBzR3ugtagYek26tfWd42F+nUjDoP7YTCewnj50zmBL9evjOgx1OmaN7Rx7TB6sfOZbhWEhomqm2JZZl6+N+ncKy57N64laoP0FCi2FyoZB51AKw5vSNkc1lgupgYZmwxCHmhSogyCuuQ19OR4AYdXwMx2GS2NcweNNPu078pmJZscIZExaAabwbxhUPIyY2DSCiPVKrJtEKoGb5Ge5vH+Y+LUibpxbEuDNAquTvsLy0Cza00yZ4B+dE3GUm2h/EgKXwOZ8DLcSQeuIawN0Xb0H2F25xZtjbN/doLZvFEz2UFwSEhlU6uv53vjaJauLTCMcgsZZalS8BI8QjFL/Ib73fZJJbH2fCrVJVfZ4ITOU7t1oRrvNcM+CXQ3bITH4d905nZC20KdHch8F1wJGjLuoI5FhLUmnFM3peYZjxeWlvRdvPrrwEsLXzc7ujcH9xySq/5N2kpt03LG5JtorEvfyi+1bs9ZW7Jq8uR53koZY0Q0SE9BZ+mLPrpQddrPQR0pz9ER7gZ9C0w/jai9ArtyNhnHwDrQyz21ahBqFOfQePEV/DXF7SkY0L6ted5hKYGe7iwjXoOQMbhc7LBb7iVFPvfYwiLv+Jy1Q7+N1yCC7dJ/DV3o/CSuoQ1cBhNBxqHNpDmgjS1te5cSRhTKH0HCPXAO/BPuIv8uwjoRzt+VE93q93snbty4yPh04b1GwB+1uZXaFNzsMF2bSvzW/QWu0meNvLzcSTXY5nZXOkMDjKAD9W0wLRv1et47cB2MDfEdoYg1nBxHuty47to5dWkQnE+iYe9Vy3KfnZGR2aZ1u6MCW39YrIEgmBjtP4xBc5DdftPzYonLMyXVk75xwrgZRcQF5ybRylUV3yCHj0gXRUdqSNGG0lKYAktC+aTwqHc9xqRVxiCQp1kICVl6Uo9tod0aClfDrNTUFkb7Dscafj0lrVp8ftNaXVRSevu6VUevGTduRiFFbBWMVfUhYxThi0TB2gnKgEawCTaHlM5hROlLrDbAlFc/fPJjxFy1H6ml9fseT5o3I6OrmZrW0k7nMo0wmnmTmyTX9B2K8pd3yBlF6OK0f9EcNKTsDMVFC3qQ0A1WwqpomeogXm4/C6PMSk5uajTN6M7H2HaBM2Hdyfdkiws0J0mYHKpGoSFB2+CbYXc0bTF06PplQBo61sIGOCiCMcgCNMyt8HjSMYquejproy0BT4rb6GAjo+0sh6pRaPhIB3kJbXRFkyYktALN6OS+D9bQwamDohXTGrc72UhPl51WbRS8QO5hU6L9vuKJ+f9QNQrtT2iZKoMojqEqGYU8Sgns4m6NlTdGNQlL0hCy1bI8RnJKUyyi8ttjB54Jb+Jym96mB8bX5PMhsSSNoADtbjIHCxqEZvbRJJkEIaM42AahNqqte9mRNDyuJDOFv5Bhwy7I5Y5nk07niSmHqlGUv+hYPljDhlCeWPnK11fbx+zhB4wmZp5xZNLy4MPxWCf0sy9aYiQn1OMfqkahO05byPIYsa5RHkJoqBEHW+Td+IKS3/AE9hpN+T2V4G5l7Fbxi61u7U8kTBJqYQlrVc0rkpLU2ZpsaniIJprY7QXl0R+ti2VA0epIZLza0dLwlxj+YubINnwX4wsv9XmCb7UnqiGHqlFISTIMrUJijbd6Jr0DJG2hWfDo4P2nDbeuAV+h4S/caMdL8Hjc8Jb6PLG28OO+mkPVKNTR8gLq6Kgzc1YbGmZyQEvXLqA9i4MpamvfQGme4c9bWdWjj+BkiOHFy1a3tvITJoeqUaijtRHUEbSzGUuySFwHvaFnrIy1mcbQpaEjk7B7oHSX4du1VBPgmKLRhe8aFRUYaWp/wuRQNwrt9LVF0bGuU29ArQJ5ioHk1d7FwZCWnPR4w1eQxu9PBEyGj6rF9HkD1s4VxjBtvCVMYikrYSepy4ro1AGc73LQnZ8CXSHWXEFeZQloHjIUjoQ6FdqsVcdhMNpXtM0s3fIe2xOaJ1clAYtvj3Q80f3GbSuntUyYlzvYs+2qrtp2OorVUHE2nAmDQQYxCxaAHqlHFOYV+o2sj0n8AobBiXzW09KEzugjnnx/pJ7VnOH3FXfzMZfwbfuA1yv3J8Y44qsI/tYuv/faNp7dg3a+mvzmZl+rGUeMy9EcqdrS4I2CDpS7PxnOgeGgyeXX8Aq8D6vo4KrW8cqv9zKPgrNABvIm1LrQfhnvEBgX8OYVl2ybt9Xl3ZrJLJIOt3V6vvzhb8WbeKfyBePeHd1bh255pfErb/zYc3Z1376yZ4+22la3mVCmDPoYOBdOgt6ggfgNeAf0VwRs3zHU15cyd8GZoDrupbyMpdaEc2r4Hgh/huMCJXlzcz+/7Gn/lpnD+BLgOW7L11V/JcKebYQWK3oLzTSX+wKueXu9qdM6j9/zebwX0CCNAmVqqLgAxoDu7lJ4D3R3a7jQr+VpR9O2hIxsLAXugEx4Bh6iHj1ST7hwPule84BbYBzolcFbZsww5w51pbZLM33HsbQY4zJ9p2EgzbxxXI12QXnVgiW59ZnPcs/+bn2rR4f+Oqcqb8np90lDHT50h8k7HA/qtKfhdVhDJ9qZoZG1olBOXyj6gNhOcDNcCHr38wnS1nCcMKFOtV8G8SvQsLcFnoAF48bpz2EU5gS+MF7NXt/om3SjdLHX8I11m77hlhnwxPpBG8oHZd+wE2jMdGmEEXAHivd0f2jfdkw4R+ywoRqFlPgJyEvoGpaC5g5x3E+UOEAov4sOm050U5gIl0Ij4p4i1HBk15OTPbJQVxIpeif0WtBQtQemgr60XPak1hwk75e/Ytmzbda3Si1YStKpgYD3LMvy91en25lv4C0KSwOu6SPj/N6HXFiDFJTbi4Y/CKNASr0fpWYT1liouwuVXAZXQHP4CPSNMf3q/zbCagn1tqfgaNDQdxxsgsfhBerdShhVcl7r0CLFv324ywycwd/WGe0x/e29+JRowhDC7+i4P1zr63zhoHFrc6PlixTfYI1CF4OSryb4A8hb/BbeKH+38bnaEurAsVRwOfSH9TAH5oK+R5JDWKVQj4aKznAsyIBHguZEWuHIA+mHW21NiAOTDWv9gIzOTQJFJ/MDaWdaAf8ot+lvVGm+wbN3vpa8Y6/V6NL25+6ZzTnikoZuFFp+3gfng1YMd6HglYQJETq0CRUNB93ZWvZq13E1aEa/HNaAjGMH7AUNXy5oBMorY+gO/UBD3WGwGbR/8hroF/yKCOMSftPK07Lpmn5NkgpP51vEZzLfGMwd4gr/rhZ7HEUlRtLLr/7Y7+rqLEsbtFFIk3TcGII/QQe4DZ5H0cy8EyOhO70btZ0EusuPBnW2jGAdyCj0bmcko9CkVXl5RyKYdzGhPM082qiyNRLmG+mt0vKPS7WKR/MA/VRWK73Y3+D5mLV2l9H4wszzcr+qzgkOBaPQO5b3gMZ/3cF/ROGfEsYUOjt47eQNxMwYSiS/m0Pd9TKKgaDVQxdoA5qYagIZFk0Yd4MmxOvhe1gCap9e47d7TrJWnffb2cPbtWvU/Bq3K/3/vDvm7i0t/vGh1ueX3M65qiW60AYtKC2PDtOKQe5Z4/YpfF5L/PZoF0a67t7joYjj+eStcvJIHi/5VwnKvE4o79EV2kEzSAcNHconr7ELNJHMgvWUzye0LZxDxnYyYSnhR5SXgUWUPqfOL/Z6/U2NonXe4uyXlm9eeseTETP+lCJRnBtug62wDE4HdVAFIa55KE1//2MdrISbQR1QY6Eeq6aVUId+WqkD6HrWwWq4D0aBDK+CEJcMp4H+DOgOkMd0RBpAGb1Bf6JaG04Pg7xBUDhOhaPhdvgS5CG0J1EAWaB43fUHVWiDC3rBn2AzqJ0ydF3TQvgN6PF+0MMTyoA6gv50hfLo+jU5diSsARRyNayFDXARpEFPmAjvQD7obtLfKrsD/hv6vIVQ3mMIJIfrq8uQ86qtJ8C/YDfIKJ6CW2EOKG4PvAYToCuojI71t1J0zafVZZsbxLlQSjtQR+sOewVuhP+AOl2KWwx3Qj/QXSaD+SusB6XPgotBd1+dTMI5j7xDJlwJH4Da/h3cCR1AQ+NRoHZ+AUqXwTwOV8ECkMeTMVUaMhtEx9V2I1HM2bAU8kJIiatASjwRtDwsEz7LkG6AT6AQsuAfoEle67KMCT6gbn4ENXjuMwjlpXJAnTsXJoFWVWXCZ3kF5ZXRrwYvaGgphm/gyLLMzkFFDaCcRnA/aM6wEeQxdPdrMymikJYMp8KzkA1S9BK4GxSvO7n8kjNiPXYiqScFDoOzQHe/OlTzARmj7vYREHXCSlpLkIeYCTKKXJhs59x289SJi7TbmETlQ0nHUdf5kAN60GRro4hympxqa1vPJwZAC9CSci5o72MNqM4t1Km9CFtCvSlk1HMP1X8YHAMjIBO2wpfwNrxOvVUuj6lPRtMNxkMP0I+2ZRMmRA5Vo9BdrWGiEGXF9Sg9pPA+lD0LtJfRGzqA6tE+hTpPD7BWE9oS6uxJxmthJOhYnapO/Bbmwdvx1Ef+oITa2oay2jp3pLY1gMI1EZWbl6t+Gr4GDSufgZ6D2BbynwQaljSZ/RyehEuhbNlsuzInY/3QAJ2neYCWu1r2aUJ6YjwtI/8oWAcr4DzwxFO+rvPKjTlShQZwz0Vk0dhfUEXWqpK1/f0D9ZVWlfFgpjtGEZ/2azIHU9kw8Z21jnM7RlHHCm8Ip3OMIr5eCj/yjtdjhPOrfLiO+M5ch7kdo7Cv7PIda7/U/pxhYwjXsz+lnh01+Pcp6lCf6lR1qG6kYMeyirB7Uyl/GA7rtzhGEV//yDD0/mUfDEIvzdgxCpU5HA7K01fOG7c4RhGfysIdfB/F/HEUlfFol1Vb5KqjXotjFPa7R3sM60EbT/EYBNmDouEjG2w/M9lXrO7/D46NdX/ahndGhgs9S9ELujKK6t7t2rTSj7jG9TyGMo44GnA04GjA0YCjAUcDjgYcDTgacDTgaMDRgKMBRwOOBhwNOBpwNOBowNFARA38P2McI8fa+mkCAAAAAElFTkSuQmCC;" parent="7or_H2I2M1jhDvwkGGvZ-2" vertex="1">
          <mxGeometry x="122.5" y="240" width="45" height="45" as="geometry" />
        </mxCell>
        <mxCell id="oC8v5R6ncZ2y5Ac7K_mP-32" style="rounded=0;orthogonalLoop=1;jettySize=auto;html=1;startArrow=oval;startFill=1;endArrow=block;endFill=1;strokeWidth=4;strokeColor=#4DC5FE;endSize=3;startSize=3;exitX=0.5;exitY=0;exitDx=0;exitDy=0;entryX=0.5;entryY=0.75;entryDx=0;entryDy=0;entryPerimeter=0;" parent="7or_H2I2M1jhDvwkGGvZ-2" source="oC8v5R6ncZ2y5Ac7K_mP-30" target="oC8v5R6ncZ2y5Ac7K_mP-29" edge="1">
          <mxGeometry relative="1" as="geometry">
            <mxPoint x="280" y="230" as="sourcePoint" />
            <mxPoint x="240" y="240" as="targetPoint" />
          </mxGeometry>
        </mxCell>
      </root>
    </mxGraphModel>
  </diagram>
</mxfile>
